<?xml version="1.0" encoding="UTF-8"?>
<svg id="Layer_2" data-name="Layer 2" xmlns="http://www.w3.org/2000/svg" viewBox="0 0 1277.92 371.61">
  <defs>
    <style>
      .cls-1 {
        fill: #5f2367;
      }

      .cls-2 {
        fill: #a370a0;
      }
    </style>
  </defs>
  <g id="Layer_1-2" data-name="Layer 1">
    <g>
      <g>
        <path class="cls-2" d="M8.51,364.14V14.01c0-4.8,2.4-7.47,7.2-7.47h109.57c21.59,0,37.86,5.6,49.06,16.8,11.2,11.2,16.53,27.73,16.53,49.33v233.06c0,21.33-5.6,37.6-16.53,48.8-11.2,11.2-27.46,16.8-49.06,16.8H15.98c-5.07.27-7.47-2.14-7.47-7.2ZM70.63,311.35h42.13c12.27,0,18.13-6.14,18.13-18.14V85.75c0-12.54-6.13-18.67-18.13-18.67h-42.13v244.27Z"/>
        <path class="cls-2" d="M368.02,6.55h42.13c2.4,0,4.53.8,6.4,2.67,1.86,1.87,2.67,4,2.67,6.4v290.13c0,21.33-5.6,37.6-16.53,48.8-11.2,11.2-27.46,16.8-49.06,16.8h-51.45c-21.33,0-37.59-5.6-48.79-16.8s-16.8-27.47-16.8-48.8V15.61c0-2.4.8-4.53,2.67-6.4,1.87-1.86,4-2.67,6.4-2.67h43.99c2.4,0,4.53.8,6.4,2.67s2.67,4,2.67,6.4v277.33c0,12.27,6.14,18.13,18.4,18.13h23.73c12.27,0,18.13-6.13,18.13-18.13V15.61c0-2.4.8-4.53,2.67-6.4,1.86-1.6,4-2.67,6.4-2.67Z"/>
        <path class="cls-2" d="M462.79,6.55h167.7c4.8,0,7.46,2.4,7.46,7.47v45.6c0,4.8-2.4,7.2-7.46,7.2h-52.79v297.33c0,4.8-2.4,7.2-7.2,7.2h-47.45c-4.8,0-7.47-2.4-7.47-7.2V66.81h-52.79c-4.8,0-7.46-2.4-7.46-7.2V14.01c.27-5.07,2.66-7.47,7.46-7.47Z"/>
        <path class="cls-2" d="M681.71,6.55h47.46c4.8,0,7.2,2.4,7.2,7.47v350.13c0,4.8-2.4,7.2-7.2,7.2h-47.46c-4.8,0-7.2-2.4-7.2-7.2V14.01c0-5.07,2.4-7.47,7.2-7.47Z"/>
        <path class="cls-2" d="M972.78,6.55h60.26c6.13,0,9.06,2.93,9.06,9.07v346.67c0,6.13-2.93,9.07-9.06,9.07h-42.39c-6.13,0-9.06-2.94-9.06-9.07v-205.33h-3.2l-45.06,206.13c-1.06,5.6-4.53,8.27-10.13,8.27h-22.4c-5.06,0-8.53-2.67-10.13-8.27l-45.32-205.86h-3.2v205.33c0,6.14-2.93,9.07-9.07,9.07h-41.85c-6.14,0-9.07-2.93-9.07-9.07V15.88c0-6.13,2.93-9.07,9.07-9.07h60.25c5.33,0,8.8,2.67,10.14,8.27l50.39,226.93,50.66-227.2c1.6-5.6,4.8-8.27,10.13-8.27Z"/>
        <path class="cls-2" d="M1098.51,6.55h171.43c7.2,0,9.6,3.73,6.93,10.93l-113.58,293.87h100.24c4.8,0,7.2,2.4,7.2,7.46v45.07c0,4.53-2.4,7.2-7.2,7.73h-177.29c-3.73,0-6.13-1.07-7.2-3.2-1.07-2.13-1.07-4.8.27-7.73l113.57-293.33h-94.38c-4.8,0-7.47-2.4-7.47-7.2V14.55c.27-4.8,2.67-7.46,7.47-8Z"/>
      </g>
      <g>
        <path class="cls-1" d="M0,357.6V7.47C0,2.67,2.4,0,7.2,0h109.57c21.59,0,37.86,5.6,49.06,16.8,11.2,11.2,16.53,27.73,16.53,49.33v233.06c0,21.33-5.6,37.6-16.53,48.8-11.2,11.2-27.46,16.8-49.06,16.8H7.47c-5.07.27-7.47-2.14-7.47-7.2ZM62.12,304.8h42.13c12.27,0,18.13-6.14,18.13-18.14V79.2c0-12.54-6.13-18.67-18.13-18.67h-42.13v244.27Z"/>
        <path class="cls-1" d="M359.51,0h42.13c2.4,0,4.53.8,6.4,2.67,1.86,1.87,2.67,4,2.67,6.4v290.13c0,21.33-5.6,37.6-16.53,48.8-11.2,11.2-27.46,16.8-49.06,16.8h-51.45c-21.33,0-37.59-5.6-48.79-16.8s-16.8-27.47-16.8-48.8V9.07c0-2.4.8-4.53,2.67-6.4,1.87-1.86,4-2.67,6.4-2.67h43.99c2.4,0,4.53.8,6.4,2.67s2.67,4,2.67,6.4v277.33c0,12.27,6.14,18.13,18.4,18.13h23.73c12.27,0,18.13-6.13,18.13-18.13V9.07c0-2.4.8-4.53,2.67-6.4,1.86-1.6,4-2.67,6.4-2.67Z"/>
        <path class="cls-1" d="M454.28,0h167.7c4.8,0,7.46,2.4,7.46,7.47v45.6c0,4.8-2.4,7.2-7.46,7.2h-52.79v297.33c0,4.8-2.4,7.2-7.2,7.2h-47.45c-4.8,0-7.47-2.4-7.47-7.2V60.27h-52.79c-4.8,0-7.46-2.4-7.46-7.2V7.47c.27-5.07,2.66-7.47,7.46-7.47Z"/>
        <path class="cls-1" d="M673.2,0h47.46c4.8,0,7.2,2.4,7.2,7.47v350.13c0,4.8-2.4,7.2-7.2,7.2h-47.46c-4.8,0-7.2-2.4-7.2-7.2V7.47c0-5.07,2.4-7.47,7.2-7.47Z"/>
        <path class="cls-1" d="M964.28,0h60.26c6.13,0,9.06,2.93,9.06,9.07v346.67c0,6.13-2.93,9.07-9.06,9.07h-42.39c-6.13,0-9.06-2.94-9.06-9.07v-205.33h-3.2l-45.06,206.13c-1.06,5.6-4.53,8.27-10.13,8.27h-22.4c-5.06,0-8.53-2.67-10.13-8.27l-45.32-205.86h-3.2v205.33c0,6.14-2.93,9.07-9.07,9.07h-41.85c-6.14,0-9.07-2.93-9.07-9.07V9.33c0-6.13,2.93-9.07,9.07-9.07h60.25c5.33,0,8.8,2.67,10.14,8.27l50.39,226.93,50.66-227.2c1.6-5.6,4.8-8.27,10.13-8.27Z"/>
        <path class="cls-1" d="M1090,0h171.43c7.2,0,9.6,3.73,6.93,10.93l-113.58,293.87h100.24c4.8,0,7.2,2.4,7.2,7.46v45.07c0,4.53-2.4,7.2-7.2,7.73h-177.29c-3.73,0-6.13-1.07-7.2-3.2-1.07-2.13-1.07-4.8.27-7.73l113.57-293.33h-94.38c-4.8,0-7.47-2.4-7.47-7.2V8c.27-4.8,2.67-7.46,7.47-8Z"/>
      </g>
    </g>
  </g>
</svg>